<svg width="160" height="160" viewBox="0 0 160 160" fill="none" xmlns="http://www.w3.org/2000/svg">
<g clip-path="url(#clip0_2287_1221)">
<rect width="160" height="160" fill="white"/>
<path d="M27.9805 139.98V145.628" stroke="black" stroke-width="0.627451"/>
<path d="M21.0781 145.941H34.5683" stroke="black" stroke-width="0.627451"/>
<path d="M17.627 129.313C17.627 132.869 19.6975 139.98 27.9799 139.98C31.3263 140.085 38.0191 138.098 38.0191 129.313" stroke="black" stroke-width="0.627451"/>
<path d="M39.588 98.5686H14.8037C14.1107 98.5686 13.5488 98.0067 13.5488 97.3137V70.0196C13.5488 69.3265 14.1107 68.7646 14.8037 68.7646H39.588C40.2811 68.7646 40.8429 69.3265 40.8429 70.0195V75.9243C40.8429 76.9686 42.044 77.556 42.8683 76.9149L50.1117 71.2811C50.936 70.64 52.1371 71.2274 52.1371 72.2716V95.4868C52.1371 96.5105 50.9773 97.1035 50.1474 96.5042L42.8326 91.2212C42.0027 90.6218 40.8429 91.2148 40.8429 92.2385V97.3137C40.8429 98.0067 40.2811 98.5686 39.588 98.5686Z" fill="#E82C86" fill-opacity="0.46" stroke="black" stroke-width="0.627451"/>
<path d="M159.118 25.7842H131.51" stroke="black" stroke-width="0.627451"/>
<path d="M159.118 45.2354H131.51" stroke="black" stroke-width="0.627451"/>
<path d="M128.687 20.7646H100.451C92.1347 20.7646 85.3926 27.5067 85.3926 35.8235V35.8235C85.3926 44.1402 92.1346 50.8823 100.451 50.8823H117.393" stroke="black" stroke-width="0.627451"/>
<path d="M84.7656 17H125.864" stroke="black" stroke-width="0.627451"/>
<path d="M84.4512 54.6475H117.392" stroke="black" stroke-width="0.627451"/>
<path d="M129.627 49H159.117" stroke="black" stroke-width="0.627451"/>
<path d="M80.0588 48.6865H1" stroke="black" stroke-width="0.627451"/>
<path d="M66.2553 31.1183L64.8659 27.7727L62.6633 30.6487L66.2553 31.1183ZM65.3869 40.6429C64.9246 41.1977 63.2775 42.4124 60.6083 42.4124V43.0398C63.4606 43.0398 65.2854 41.7447 65.8689 41.0446L65.3869 40.6429ZM60.6083 42.4124C57.3129 42.4124 53.7063 39.7122 53.7063 35.1967H53.0789C53.0789 40.093 57.0017 43.0398 60.6083 43.0398V42.4124ZM53.7063 35.1967C53.7063 33.2613 54.9591 31.1697 56.8789 29.9155C58.7842 28.6708 61.3151 28.2723 63.862 29.6761L64.1649 29.1266C61.39 27.5972 58.6105 28.0347 56.5358 29.3902C54.4756 30.7361 53.0789 33.0087 53.0789 35.1967H53.7063Z" fill="black"/>
<path d="M1 22.9608H70.6471C73.7659 22.9608 76.2941 20.4325 76.2941 17.3137V1" stroke="black" stroke-width="0.627451"/>
<path d="M159.117 22.9608H139.666C136.547 22.9608 134.019 20.4325 134.019 17.3137V1" stroke="black" stroke-width="0.627451"/>
<path d="M159.431 1H11.65C5.76817 1 1 5.76817 1 11.65V159.5" stroke="black" stroke-width="0.627451"/>
<circle cx="18.5694" cy="12.6075" r="3.45098" stroke="black" stroke-width="0.627451"/>
<circle cx="30.4893" cy="12.6075" r="3.45098" stroke="black" stroke-width="0.627451"/>
<circle cx="42.4112" cy="12.6075" r="3.45098" stroke="black" stroke-width="0.627451"/>
<path d="M17.315 30.8037L11.668 36.4508L17.315 42.0978" stroke="black" stroke-width="0.627451"/>
<path d="M11.668 36.4512H23.5895" stroke="black" stroke-width="0.627451"/>
<path d="M36.7651 42.0986L42.4121 36.4516L36.7651 30.8045" stroke="black" stroke-width="0.627451"/>
<path d="M42.4121 36.4512H30.4905" stroke="black" stroke-width="0.627451"/>
<circle cx="105.157" cy="35.8232" r="27.9216" stroke="black" stroke-width="0.627451"/>
<path d="M115.195 31.4316H106.725" stroke="#E82C86" stroke-width="1.2549"/>
<circle cx="101.391" cy="31.4312" r="2.5098" stroke="#E82C86" stroke-width="1.2549"/>
<path d="M98.256 41.4717H106.727" stroke="#E82C86" stroke-width="1.2549"/>
<circle cx="3.13725" cy="3.13725" r="2.5098" transform="matrix(-1 0 0 1 115.197 38.334)" stroke="#E82C86" stroke-width="1.2549"/>
<rect x="80.3723" y="80.0598" width="29.4902" height="7.52941" rx="3.76471" fill="#C2E7FE" stroke="black" stroke-width="0.627451"/>
<circle cx="75.6666" cy="83.5104" r="7.84314" fill="#FFD7D7" stroke="black" stroke-width="0.627451"/>
<rect x="80.3723" y="125.863" width="29.4902" height="7.52941" rx="3.76471" fill="#C2E7FE" stroke="black" stroke-width="0.627451"/>
<circle cx="75.6666" cy="129.313" r="7.84314" fill="#FFD7D7" stroke="black" stroke-width="0.627451"/>
<rect x="21.3919" y="106.411" width="12.549" height="28.2353" rx="6.27451" fill="#E82C86" fill-opacity="0.46" stroke="black" stroke-width="0.627451"/>
<path d="M120.787 97.4453L130.342 84.5665C131.027 83.6433 132.442 83.7556 132.972 84.7752L142.099 102.307C142.996 104.031 145.15 104.658 146.832 103.684C148.432 102.758 149.002 100.726 148.119 99.1028L139.347 82.9815C138.784 81.9468 139.533 80.6866 140.711 80.6866H155.874C157.627 80.6866 158.428 78.5031 157.093 77.3692L120.493 46.2991C119.27 45.2611 117.393 46.1301 117.393 47.7341V96.3237C117.393 98.1376 119.706 98.9021 120.787 97.4453Z" fill="white" stroke="black" stroke-width="0.627451"/>
</g>
<defs>
<clipPath id="clip0_2287_1221">
<rect width="160" height="160" fill="white"/>
</clipPath>
</defs>
</svg>
