<svg id="visual" viewBox="0 0 900 600" width="900" height="600" xmlns="http://www.w3.org/2000/svg" xmlns:xlink="http://www.w3.org/1999/xlink" version="1.1"><rect x="0" y="0" width="900" height="600" fill="#001220"></rect><path d="M0 409L21.5 400.5C43 392 86 375 128.8 378.8C171.7 382.7 214.3 407.3 257.2 419.5C300 431.7 343 431.3 385.8 419.5C428.7 407.7 471.3 384.3 514.2 371.7C557 359 600 357 642.8 356.2C685.7 355.3 728.3 355.7 771.2 358.8C814 362 857 368 878.5 371L900 374L900 601L878.5 601C857 601 814 601 771.2 601C728.3 601 685.7 601 642.8 601C600 601 557 601 514.2 601C471.3 601 428.7 601 385.8 601C343 601 300 601 257.2 601C214.3 601 171.7 601 128.8 601C86 601 43 601 21.5 601L0 601Z" fill="#fa7268"></path><path d="M0 393L21.5 403.2C43 413.3 86 433.7 128.8 441.2C171.7 448.7 214.3 443.3 257.2 437.5C300 431.7 343 425.3 385.8 418.7C428.7 412 471.3 405 514.2 409C557 413 600 428 642.8 435C685.7 442 728.3 441 771.2 440.2C814 439.3 857 438.7 878.5 438.3L900 438L900 601L878.5 601C857 601 814 601 771.2 601C728.3 601 685.7 601 642.8 601C600 601 557 601 514.2 601C471.3 601 428.7 601 385.8 601C343 601 300 601 257.2 601C214.3 601 171.7 601 128.8 601C86 601 43 601 21.5 601L0 601Z" fill="#ef5f67"></path><path d="M0 471L21.5 476.3C43 481.7 86 492.3 128.8 495.8C171.7 499.3 214.3 495.7 257.2 496.7C300 497.7 343 503.3 385.8 497.7C428.7 492 471.3 475 514.2 465C557 455 600 452 642.8 456.8C685.7 461.7 728.3 474.3 771.2 474.7C814 475 857 463 878.5 457L900 451L900 601L878.5 601C857 601 814 601 771.2 601C728.3 601 685.7 601 642.8 601C600 601 557 601 514.2 601C471.3 601 428.7 601 385.8 601C343 601 300 601 257.2 601C214.3 601 171.7 601 128.8 601C86 601 43 601 21.5 601L0 601Z" fill="#e34c67"></path><path d="M0 489L21.5 492.8C43 496.7 86 504.3 128.8 506.7C171.7 509 214.3 506 257.2 505.8C300 505.7 343 508.3 385.8 507C428.7 505.7 471.3 500.3 514.2 499.7C557 499 600 503 642.8 502.3C685.7 501.7 728.3 496.3 771.2 502.2C814 508 857 525 878.5 533.5L900 542L900 601L878.5 601C857 601 814 601 771.2 601C728.3 601 685.7 601 642.8 601C600 601 557 601 514.2 601C471.3 601 428.7 601 385.8 601C343 601 300 601 257.2 601C214.3 601 171.7 601 128.8 601C86 601 43 601 21.5 601L0 601Z" fill="#d53867"></path><path d="M0 541L21.5 542.7C43 544.3 86 547.7 128.8 552.2C171.7 556.7 214.3 562.3 257.2 558.5C300 554.7 343 541.3 385.8 539.3C428.7 537.3 471.3 546.7 514.2 550C557 553.3 600 550.7 642.8 552.2C685.7 553.7 728.3 559.3 771.2 559.8C814 560.3 857 555.7 878.5 553.3L900 551L900 601L878.5 601C857 601 814 601 771.2 601C728.3 601 685.7 601 642.8 601C600 601 557 601 514.2 601C471.3 601 428.7 601 385.8 601C343 601 300 601 257.2 601C214.3 601 171.7 601 128.8 601C86 601 43 601 21.5 601L0 601Z" fill="#c62368"></path></svg>